HIERARCHY
ROOT Hips
{
  OFFSET 5.80788e-005 67.184 3.4734
  CHANNELS 6 Xposition Yposition Zposition Zrotation Xrotation Yrotation
  JOINT Chest
  {
    OFFSET 0 8.7983 -4.7612
    CHANNELS 6 Xposition Yposition Zposition Zrotation Xrotation Yrotation
    JOINT Chest2
    {
      OFFSET 0 8.0291 0.4195
      CHANNELS 6 Xposition Yposition Zposition Zrotation Xrotation Yrotation
      JOINT Chest3
      {
        OFFSET 0 9.9351 -2.2114
        CHANNELS 6 Xposition Yposition Zposition Zrotation Xrotation Yrotation
        JOINT Neck
        {
          OFFSET 0 22.3885 -0.4656
          CHANNELS 6 Xposition Yposition Zposition Zrotation Xrotation Yrotation
          JOINT Head
          {
            OFFSET -0.0001 12.643 3.4389
            CHANNELS 6 Xposition Yposition Zposition Zrotation Xrotation Yrotation
            End Site
            {
              OFFSET 0.0001 17.6655 0.5274
            }
          }
        }
        JOINT LeftCollar
        {
          OFFSET 2.2603 21.606 7.4023
          CHANNELS 6 Xposition Yposition Zposition Zrotation Xrotation Yrotation
          JOINT LeftShoulder
          {
            OFFSET 13.5163 -1.1332 -5.0146
            CHANNELS 6 Xposition Yposition Zposition Zrotation Xrotation Yrotation
            JOINT LeftElbow
            {
              OFFSET -0.0995 -28.05 -0.2431
              CHANNELS 6 Xposition Yposition Zposition Zrotation Xrotation Yrotation
              JOINT LeftWrist
              {
                OFFSET 0.0679 -23.3996 -0.1402
                CHANNELS 6 Xposition Yposition Zposition Zrotation Xrotation Yrotation
                JOINT LeftFinger1
                {
                  OFFSET 0.7932 -9.069 2.5189
                  CHANNELS 6 Xposition Yposition Zposition Zrotation Xrotation Yrotation
                  JOINT LeftFinger11
                  {
                    OFFSET -0.8272 -3.3923 0.5977
                    CHANNELS 6 Xposition Yposition Zposition Zrotation Xrotation Yrotation
                    JOINT LeftFinger12
                    {
                      OFFSET -0.5649 -2.3158 0.4082
                      CHANNELS 6 Xposition Yposition Zposition Zrotation Xrotation Yrotation
                      End Site
                      {
                        OFFSET -0.4919 -1.6479 0.2673
                      }
                    }
                  }
                }
                JOINT LeftFinger2
                {
                  OFFSET 0.9159 -9.2044 0.2193
                  CHANNELS 6 Xposition Yposition Zposition Zrotation Xrotation Yrotation
                  JOINT LeftFinger21
                  {
                    OFFSET 0.0117 -4.1944 -0.0248
                    CHANNELS 6 Xposition Yposition Zposition Zrotation Xrotation Yrotation
                    JOINT LeftFinger22
                    {
                      OFFSET 0.0071 -2.3249 -0.0142
                      CHANNELS 6 Xposition Yposition Zposition Zrotation Xrotation Yrotation
                      End Site
                      {
                        OFFSET -0.1475 -2.0882 0.0028
                      }
                    }
                  }
                }
                JOINT LeftFinger3
                {
                  OFFSET 0.6113 -8.7231 -2.0637
                  CHANNELS 6 Xposition Yposition Zposition Zrotation Xrotation Yrotation
                  JOINT LeftFinger31
                  {
                    OFFSET -0.1927 -3.8059 -0.2383
                    CHANNELS 6 Xposition Yposition Zposition Zrotation Xrotation Yrotation
                    JOINT LeftFinger32
                    {
                      OFFSET -0.1091 -2.1688 -0.1362
                      CHANNELS 6 Xposition Yposition Zposition Zrotation Xrotation Yrotation
                      End Site
                      {
                        OFFSET -0.2358 -1.9176 -0.0906
                      }
                    }
                  }
                }
                JOINT LeftFinger4
                {
                  OFFSET -0.6151 -8.0947 -3.5641
                  CHANNELS 6 Xposition Yposition Zposition Zrotation Xrotation Yrotation
                  JOINT LeftFinger41
                  {
                    OFFSET -0.4882 -2.341 -0.6462
                    CHANNELS 6 Xposition Yposition Zposition Zrotation Xrotation Yrotation
                    JOINT LeftFinger42
                    {
                      OFFSET -0.3575 -1.7167 -0.4742
                      CHANNELS 6 Xposition Yposition Zposition Zrotation Xrotation Yrotation
                      End Site
                      {
                        OFFSET -0.4187 -1.5237 -0.3496
                      }
                    }
                  }
                }
                JOINT LeftFinger0
                {
                  OFFSET -1.42 -1.8761 1.4223
                  CHANNELS 6 Xposition Yposition Zposition Zrotation Xrotation Yrotation
                  JOINT LeftFinger01
                  {
                    OFFSET -1.1471 -3.4929 2.6334
                    CHANNELS 6 Xposition Yposition Zposition Zrotation Xrotation Yrotation
                    JOINT LeftFinger02
                    {
                      OFFSET -0.823 -2.3 1.6571
                      CHANNELS 6 Xposition Yposition Zposition Zrotation Xrotation Yrotation
                      End Site
                      {
                        OFFSET -0.5822 -1.6914 1.1582
                      }
                    }
                  }
                }
              }
            }
          }
        }
        JOINT RightCollar
        {
          OFFSET -2.2603 21.606 7.4023
          CHANNELS 6 Xposition Yposition Zposition Zrotation Xrotation Yrotation
          JOINT RightShoulder
          {
            OFFSET -13.5187 -1.1334 -5.0155
            CHANNELS 6 Xposition Yposition Zposition Zrotation Xrotation Yrotation
            JOINT RightElbow
            {
              OFFSET 0.0994 -28.0499 -0.2431
              CHANNELS 6 Xposition Yposition Zposition Zrotation Xrotation Yrotation
              JOINT RightWrist
              {
                OFFSET -0.0679 -23.3996 -0.1402
                CHANNELS 6 Xposition Yposition Zposition Zrotation Xrotation Yrotation
                JOINT RightFinger1
                {
                  OFFSET -0.7932 -9.0691 2.5189
                  CHANNELS 6 Xposition Yposition Zposition Zrotation Xrotation Yrotation
                  JOINT RightFinger11
                  {
                    OFFSET 0.8272 -3.3923 0.5977
                    CHANNELS 6 Xposition Yposition Zposition Zrotation Xrotation Yrotation
                    JOINT RightFinger12
                    {
                      OFFSET 0.565 -2.3158 0.4082
                      CHANNELS 6 Xposition Yposition Zposition Zrotation Xrotation Yrotation
                      End Site
                      {
                        OFFSET 0.4919 -1.6479 0.2673
                      }
                    }
                  }
                }
                JOINT RightFinger2
                {
                  OFFSET -0.916 -9.2044 0.2193
                  CHANNELS 6 Xposition Yposition Zposition Zrotation Xrotation Yrotation
                  JOINT RightFinger21
                  {
                    OFFSET -0.0117 -4.1944 -0.0248
                    CHANNELS 6 Xposition Yposition Zposition Zrotation Xrotation Yrotation
                    JOINT RightFinger22
                    {
                      OFFSET -0.0071 -2.3249 -0.0142
                      CHANNELS 6 Xposition Yposition Zposition Zrotation Xrotation Yrotation
                      End Site
                      {
                        OFFSET 0.1475 -2.0882 0.0028
                      }
                    }
                  }
                }
                JOINT RightFinger3
                {
                  OFFSET -0.6113 -8.7231 -2.0637
                  CHANNELS 6 Xposition Yposition Zposition Zrotation Xrotation Yrotation
                  JOINT RightFinger31
                  {
                    OFFSET 0.1927 -3.8059 -0.2383
                    CHANNELS 6 Xposition Yposition Zposition Zrotation Xrotation Yrotation
                    JOINT RightFinger32
                    {
                      OFFSET 0.1091 -2.1688 -0.1362
                      CHANNELS 6 Xposition Yposition Zposition Zrotation Xrotation Yrotation
                      End Site
                      {
                        OFFSET 0.2358 -1.9176 -0.0906
                      }
                    }
                  }
                }
                JOINT RightFinger4
                {
                  OFFSET 0.6151 -8.0947 -3.564
                  CHANNELS 6 Xposition Yposition Zposition Zrotation Xrotation Yrotation
                  JOINT RightFinger41
                  {
                    OFFSET 0.4882 -2.341 -0.6462
                    CHANNELS 6 Xposition Yposition Zposition Zrotation Xrotation Yrotation
                    JOINT RightFinger42
                    {
                      OFFSET 0.3574 -1.7166 -0.4742
                      CHANNELS 6 Xposition Yposition Zposition Zrotation Xrotation Yrotation
                      End Site
                      {
                        OFFSET 0.4187 -1.5237 -0.3496
                      }
                    }
                  }
                }
                JOINT RightFinger0
                {
                  OFFSET 1.4199 -1.8761 1.4221
                  CHANNELS 6 Xposition Yposition Zposition Zrotation Xrotation Yrotation
                  JOINT RightFinger01
                  {
                    OFFSET 1.1472 -3.4929 2.6336
                    CHANNELS 6 Xposition Yposition Zposition Zrotation Xrotation Yrotation
                    JOINT RightFinger02
                    {
                      OFFSET 0.8229 -2.3 1.6571
                      CHANNELS 6 Xposition Yposition Zposition Zrotation Xrotation Yrotation
                      End Site
                      {
                        OFFSET 0.5822 -1.6914 1.1582
                      }
                    }
                  }
                }
              }
            }
          }
        }
      }
    }
  }
  JOINT RightHip
  {
    OFFSET -9.412 3.9771 -0.7758
    CHANNELS 6 Xposition Yposition Zposition Zrotation Xrotation Yrotation
    JOINT RightKnee
    {
      OFFSET -0.7531 -40.938 0
      CHANNELS 6 Xposition Yposition Zposition Zrotation Xrotation Yrotation
      JOINT RightAnkle
      {
        OFFSET 0 -40.1986 0
        CHANNELS 6 Xposition Yposition Zposition Zrotation Xrotation Yrotation
        JOINT RightToe
        {
          OFFSET 0 -4.4182 9.239
          CHANNELS 6 Xposition Yposition Zposition Zrotation Xrotation Yrotation
          End Site
          {
            OFFSET 0 0 6.1981
          }
        }
      }
    }
  }
  JOINT LeftHip
  {
    OFFSET 9.4119 3.9773 -0.7758
    CHANNELS 6 Xposition Yposition Zposition Zrotation Xrotation Yrotation
    JOINT LeftKnee
    {
      OFFSET 0.7532 -40.9383 0
      CHANNELS 6 Xposition Yposition Zposition Zrotation Xrotation Yrotation
      JOINT LeftAnkle
      {
        OFFSET 0 -40.1986 0
        CHANNELS 6 Xposition Yposition Zposition Zrotation Xrotation Yrotation
        JOINT LeftToe
        {
          OFFSET 0 -4.4182 9.239
          CHANNELS 6 Xposition Yposition Zposition Zrotation Xrotation Yrotation
          End Site
          {
            OFFSET 0 0 6.1981
          }
        }
      }
    }
  }
}
MOTION
Frames:	4
Frame Time:	0.0333333
5.80788e-005 67.184 3.4734 0 0 -0 0 8.7983 -4.7612 0 0 -0 0 8.0291 0.4195 0 0 -0 0 9.9351 -2.2114 0 0 -0 0 22.3885 -0.4656 0 0 -0.00321283 -0.0001 12.643 3.4389 -0 0 3.88251e-019 2.2603 21.606 7.4023 0 0 -12.5046 13.5163 -1.1332 -5.0146 88.1196 14.2451 10.6914 -0.0995 -28.05 -0.2431 -0.00160083 -0.00239194 0.000739896 0.0679 -23.3996 -0.1402 -8.42564e-005 7.03755e-005 -1.55358e-006 0.7932 -9.069 2.5189 -2.20695e-032 -3.97569e-016 -3.18055e-015 -0.8272 -3.3923 0.5977 4.96962e-017 -5.96354e-016 1.59028e-015 -0.5649 -2.3158 0.4082 -2.98177e-016 -3.97569e-016 -3.18055e-015 0.9159 -9.2044 0.2193 -2.20695e-032 -3.97569e-016 -3.18055e-015 0.0117 -4.1944 -0.0248 -0.0128175 0.00232547 8.59815e-005 0.0071 -2.3249 -0.0142 6.4605e-016 -3.97569e-016 -0 0.6113 -8.7231 -2.0637 -2.20695e-032 -3.97569e-016 -3.18055e-015 -0.1927 -3.8059 -0.2383 -0.0160549 0.00299653 0.000857205 -0.1091 -2.1688 -0.1362 1.98785e-016 -5.96354e-016 1.59028e-015 -0.6151 -8.0947 -3.5641 -2.20695e-032 -3.97569e-016 -3.18055e-015 -0.4882 -2.341 -0.6462 -0.0125444 0.00311406 0.00281891 -0.3575 -1.7167 -0.4742 4.96962e-016 -1.98785e-016 -0 -1.42 -1.8761 1.4223 -2.20695e-032 -3.97569e-016 -3.18055e-015 -1.1471 -3.4929 2.6334 4.96962e-017 -5.96354e-016 1.59028e-015 -0.823 -2.3 1.6571 -2.98177e-016 -3.97569e-016 -3.18055e-015 -2.2603 21.606 7.4023 -0.865634 0.165868 7.03538 -13.5187 -1.1334 -5.0155 -88.0329 10.2057 -10.5567 0.0994 -28.0499 -0.2431 0.00156608 -0.00248718 -0.000789233 -0.0679 -23.3996 -0.1402 6.50856e-005 3.92641e-005 1.19487e-005 -0.7932 -9.0691 2.5189 -2.98177e-016 -1.59028e-015 -1.59028e-015 0.8272 -3.3923 0.5977 9.93923e-017 -7.95139e-016 -0 0.565 -2.3158 0.4082 -9.93923e-017 -1.19271e-015 -1.59028e-015 -0.916 -9.2044 0.2193 -2.98177e-016 -1.59028e-015 -1.59028e-015 -0.0117 -4.1944 -0.0248 0.0129543 0.00231713 -8.67273e-005 -0.0071 -2.3249 -0.0142 9.93923e-017 -1.19271e-015 -0 -0.6113 -8.7231 -2.0637 -2.98177e-016 -1.59028e-015 -1.59028e-015 0.1927 -3.8059 -0.2383 0.0163316 0.00303371 -0.000872866 0.1091 -2.1688 -0.1362 9.93923e-017 0 -4.77083e-015 0.6151 -8.0947 -3.564 -2.98177e-016 -1.59028e-015 -1.59028e-015 0.4882 -2.341 -0.6462 0.0145761 0.00367532 -0.00325716 0.3574 -1.7166 -0.4742 0 0 -0 1.4199 -1.8761 1.4221 -2.98177e-016 -1.59028e-015 -1.59028e-015 1.1472 -3.4929 2.6336 9.93923e-017 -7.95139e-016 -0 0.8229 -2.3 1.6571 -9.93923e-017 -1.19271e-015 -1.59028e-015 -9.412 3.9771 -0.7758 3.42485 1.36937 -0.0640303 -0.7531 -40.938 0 0.000136572 0.69354 0.00145564 1.77636e-015 -40.1986 -1.11022e-016 -3.42573 -2.06297 -0.0607933 8.88178e-016 -4.4182 9.239 -3.19502e-024 0 -1.48106e-024 9.4119 3.9773 -0.7758 -3.42498 1.36123 0.0639712 0.7532 -40.9383 2.22045e-016 -6.769e-005 0.712612 -0.0012277 8.88179e-016 -40.1986 0 3.42582 -2.07388 0.0612819 -8.88178e-016 -4.4182 9.239 2.55305e-023 0 -2.31416e-026 
24.5566 48.5632 13.876 -133.331 55.5589 -1.50961e-005 0 8.7983 -4.7612 -0.0781504 3.09098 0.0932242 -7.10543e-015 8.0291 0.4195 -0.161676 6.18181 0.191127 0 9.9351 -2.2114 -0.161683 6.18181 0.191118 -7.10543e-015 22.3885 -0.4656 -0.000678904 11.853 -0.0343164 -0.0001 12.643 3.4389 -1.03522e-006 2.97445 9.96664e-006 2.2603 21.606 7.4023 -15.226 -0.832752 -11.4516 13.5163 -1.1332 -5.0146 83.6245 12.4743 21.0573 -0.0995 -28.05 -0.2431 -32.0592 0.615916 -61.9006 0.0679 -23.3996 -0.1402 -4.40358 5.62152 -7.44293 0.7932 -9.069 2.5189 -6.36111e-015 0 -4.77083e-015 -0.8272 -3.3923 0.5977 8.82781e-032 3.18055e-015 -1.59028e-015 -0.5649 -2.3158 0.4082 0 0 -0 0.9159 -9.2044 0.2193 -6.36111e-015 0 -4.77083e-015 0.0117 -4.1944 -0.0248 -0.0128311 0.00232643 9.86771e-005 0.0071 -2.3249 -0.0142 8.45327e-006 -1.51798e-005 -2.94327e-006 0.6113 -8.7231 -2.0637 -6.36111e-015 0 -4.77083e-015 -0.1927 -3.8059 -0.2383 -0.0160408 0.00298315 0.000854474 -0.1091 -2.1688 -0.1362 1.59028e-014 -4.77083e-015 1.59028e-015 -0.6151 -8.0947 -3.5641 -6.36111e-015 0 -4.77083e-015 -0.4882 -2.341 -0.6462 -0.0126181 0.00312786 0.00283521 -0.3575 -1.7167 -0.4742 6.36111e-015 -1.59028e-015 1.59028e-015 -1.42 -1.8761 1.4223 -6.36111e-015 0 -4.77083e-015 -1.1471 -3.4929 2.6334 8.82781e-032 3.18055e-015 -1.59028e-015 -0.823 -2.3 1.6571 0 0 -0 -2.2603 21.606 7.4023 14.893 -0.720467 6.30687 -13.5187 -1.1334 -5.0155 -83.5491 8.69438 -20.5445 0.0994 -28.0499 -0.2431 31.1687 -0.890222 62.5465 -0.0679 -23.3996 -0.1402 4.36751 5.35879 7.77453 -0.7932 -9.0691 2.5189 -3.18055e-015 -1.59028e-015 -1.59028e-015 0.8272 -3.3923 0.5977 6.36111e-015 -3.18055e-015 -3.18055e-015 0.565 -2.3158 0.4082 -1.76556e-031 -3.18055e-015 -3.18055e-015 -0.916 -9.2044 0.2193 -3.18055e-015 -1.59028e-015 -1.59028e-015 -0.0117 -4.1944 -0.0248 0.0130053 0.00232989 -8.677e-005 -0.0071 -2.3249 -0.0142 6.36111e-015 -3.18055e-015 -0 -0.6113 -8.7231 -2.0637 -3.18055e-015 -1.59028e-015 -1.59028e-015 0.1927 -3.8059 -0.2383 0.0163077 0.00302268 -0.000872559 0.1091 -2.1688 -0.1362 -4.80799e-006 -4.37359e-006 8.97112e-006 0.6151 -8.0947 -3.564 -3.18055e-015 -1.59028e-015 -1.59028e-015 0.4882 -2.341 -0.6462 0.0144925 0.00364291 -0.00324212 0.3574 -1.7166 -0.4742 -1.38813e-006 2.1064e-005 -2.82574e-006 1.4199 -1.8761 1.4221 -3.18055e-015 -1.59028e-015 -1.59028e-015 1.1472 -3.4929 2.6336 6.36111e-015 -3.18055e-015 -3.18055e-015 0.8229 -2.3 1.6571 -1.76556e-031 -3.18055e-015 -3.18055e-015 -9.412 3.9771 -0.7758 -24.1889 14.934 -26.4723 -0.7531 -40.938 0 -42.8367 38.353 47.6482 0 -40.1986 0 18.7876 6.24463 4.79606 0 -4.4182 9.239 -6.35938e-006 -8.29749e-006 1.02117e-006 9.4119 3.9773 -0.7758 25.5092 15.9545 26.2499 0.7532 -40.9383 8.88178e-016 41.5295 38.7471 -46.5519 0 -40.1986 -3.55271e-015 -18.1031 6.04871 -6.11836 0 -4.4182 9.239 -2.91395e-006 7.04555e-006 1.51718e-006 
43.6911 33.5029 20.1239 166.67 80.5612 -4.9458e-005 -7.10543e-015 8.7983 -4.7612 -0.116434 4.53473 0.136567 7.10543e-015 8.0291 0.4195 -0.244932 9.06929 0.283747 -7.10543e-015 9.9351 -2.2114 -0.244931 9.0693 0.28375 0 22.3885 -0.4656 -0.00923023 17.157 0.122984 -0.0001 12.643 3.4389 -6.5674e-007 4.22946 -1.30555e-006 2.2603 21.606 7.4023 -22.0173 -1.23628 -11.0698 13.5163 -1.1332 -5.0146 81.6401 11.641 25.7072 -0.0995 -28.05 -0.2431 -46.6464 -0.309078 -88.5951 0.0679 -23.3996 -0.1402 -6.22274 8.08574 -10.6697 0.7932 -9.069 2.5189 1.59189e-006 -1.52491e-006 6.17229e-007 -0.8272 -3.3923 0.5977 -2.98177e-016 0 1.98785e-016 -0.5649 -2.3158 0.4082 3.60458e-007 3.09321e-006 3.77663e-006 0.9159 -9.2044 0.2193 1.59189e-006 -1.52491e-006 6.17229e-007 0.0117 -4.1944 -0.0248 -0.0128354 0.00232748 8.36231e-005 0.0071 -2.3249 -0.0142 9.93923e-017 0 -3.97569e-016 0.6113 -8.7231 -2.0637 1.59189e-006 -1.52491e-006 6.17229e-007 -0.1927 -3.8059 -0.2383 -0.0159934 0.0029941 0.000863058 -0.1091 -2.1688 -0.1362 5.96354e-016 9.54166e-015 -1.04362e-015 -0.6151 -8.0947 -3.5641 1.59189e-006 -1.52491e-006 6.17229e-007 -0.4882 -2.341 -0.6462 -0.0126096 0.00313765 0.00284072 -0.3575 -1.7167 -0.4742 2.98177e-016 0 1.3418e-015 -1.42 -1.8761 1.4223 1.59189e-006 -1.52491e-006 6.17229e-007 -1.1471 -3.4929 2.6334 -2.98177e-016 0 1.98785e-016 -0.823 -2.3 1.6571 3.60458e-007 3.09321e-006 3.77663e-006 -2.2603 21.606 7.4023 21.912 -1.14736 6.05886 -13.5187 -1.1334 -5.0155 -81.5548 7.97418 -25.0262 0.0994 -28.0499 -0.2431 45.9475 -2.34229 89.4891 -0.0679 -23.3996 -0.1402 6.16652 7.70526 11.1491 -0.7932 -9.0691 2.5189 4.83002e-006 -5.15382e-007 -2.60307e-006 0.8272 -3.3923 0.5977 -8.09108e-006 6.50172e-008 5.87998e-006 0.565 -2.3158 0.4082 -9.85227e-015 -3.18055e-015 1.49399e-014 -0.916 -9.2044 0.2193 4.83002e-006 -5.15382e-007 -2.60307e-006 -0.0117 -4.1944 -0.0248 0.0129362 0.00232524 -7.80485e-005 -0.0071 -2.3249 -0.0142 9.37683e-006 1.15232e-005 -8.86552e-006 -0.6113 -8.7231 -2.0637 4.83002e-006 -5.15382e-007 -2.60307e-006 0.1927 -3.8059 -0.2383 0.0163437 0.00303942 -0.00086377 0.1091 -2.1688 -0.1362 5.09386e-016 -3.18055e-015 -3.57191e-015 0.6151 -8.0947 -3.564 4.83002e-006 -5.15382e-007 -2.60307e-006 0.4882 -2.341 -0.6462 0.0145787 0.00367546 -0.00325276 0.3574 -1.7166 -0.4742 -1.21756e-015 6.36111e-015 -2.5345e-015 1.4199 -1.8761 1.4221 4.83002e-006 -5.15382e-007 -2.60307e-006 1.1472 -3.4929 2.6336 -8.09108e-006 6.50172e-008 5.87998e-006 0.8229 -2.3 1.6571 -9.85227e-015 -3.18055e-015 1.49399e-014 -9.412 3.9771 -0.7758 -31.9084 19.8821 -40.4247 -0.7531 -40.938 -1.42109e-014 -77.0596 36.6607 76.8943 7.10543e-015 -40.1986 0 27.7476 8.82744 6.06497 7.10543e-015 -4.4182 9.239 -4.86096e-006 -1.5663e-006 -9.34598e-007 9.4119 3.9773 -0.7758 32.7991 18.858 40.49 0.7532 -40.9383 3.55271e-015 78.8197 37.9714 -78.358 -8.88178e-016 -40.1986 0 -26.4359 8.3512 -7.12526 1.11022e-015 -4.4182 9.239 1.68236e-006 -3.68994e-007 2.94436e-008 
39.8414 37.4664 18.6098 -179.997 75.0068 2.6105e-007 0 8.7983 -4.7612 -0.107304 4.33127 0.127489 0 8.0291 0.4195 -0.225276 8.66233 0.264278 0 9.9351 -2.2114 -0.225276 8.66235 0.264278 0 22.3885 -0.4656 -0.0249721 15.9113 0.471415 -0.0001 12.643 3.4389 -2.85628e-007 3.76498 3.53899e-007 2.2603 21.606 7.4023 -20.3967 -1.21143 -11.3564 13.5163 -1.1332 -5.0146 82.0791 11.8282 24.6747 -0.0995 -28.05 -0.2431 -43.361 -0.034307 -82.7199 0.0679 -23.3996 -0.1402 -5.48719 7.41419 -9.6399 0.7932 -9.069 2.5189 -1.76556e-031 -3.18055e-015 -3.18055e-015 -0.8272 -3.3923 0.5977 -2.64834e-031 -9.54166e-015 -1.59028e-015 -0.5649 -2.3158 0.4082 -1.59028e-015 -9.54166e-015 -7.95139e-016 0.9159 -9.2044 0.2193 -1.76556e-031 -3.18055e-015 -3.18055e-015 0.0117 -4.1944 -0.0248 -0.0128422 0.00232086 9.18172e-005 0.0071 -2.3249 -0.0142 7.95139e-016 3.18055e-015 1.59028e-015 0.6113 -8.7231 -2.0637 -1.76556e-031 -3.18055e-015 -3.18055e-015 -0.1927 -3.8059 -0.2383 -0.0160907 0.00301001 0.000863986 -0.1091 -2.1688 -0.1362 -2.38542e-015 -3.18055e-015 1.19271e-015 -0.6151 -8.0947 -3.5641 -1.76556e-031 -3.18055e-015 -3.18055e-015 -0.4882 -2.341 -0.6462 -0.0126135 0.00313619 0.00284041 -0.3575 -1.7167 -0.4742 -2.38542e-015 0 3.97569e-016 -1.42 -1.8761 1.4223 -1.76556e-031 -3.18055e-015 -3.18055e-015 -1.1471 -3.4929 2.6334 -2.64834e-031 -9.54166e-015 -1.59028e-015 -0.823 -2.3 1.6571 -1.59028e-015 -9.54166e-015 -7.95139e-016 -2.2603 21.606 7.4023 20.208 -1.11552 6.29488 -13.5187 -1.1334 -5.0155 -81.9966 8.13624 -24.031 0.0994 -28.0499 -0.2431 42.6099 -1.97246 83.5616 -0.0679 -23.3996 -0.1402 5.43485 7.07296 10.0678 -0.7932 -9.0691 2.5189 1.90599e-006 3.62113e-006 -1.43492e-006 0.8272 -3.3923 0.5977 1.59028e-015 -3.18055e-015 -3.18055e-015 0.565 -2.3158 0.4082 4.41391e-031 6.36111e-015 -3.97569e-015 -0.916 -9.2044 0.2193 1.90599e-006 3.62113e-006 -1.43492e-006 -0.0117 -4.1944 -0.0248 0.0129734 0.00233577 -8.59936e-005 -0.0071 -2.3249 -0.0142 8.82781e-032 3.18055e-015 -1.59028e-015 -0.6113 -8.7231 -2.0637 1.90599e-006 3.62113e-006 -1.43492e-006 0.1927 -3.8059 -0.2383 0.016302 0.00302575 -0.000868629 0.1091 -2.1688 -0.1362 8.82781e-032 -3.18055e-015 1.59028e-015 0.6151 -8.0947 -3.564 1.90599e-006 3.62113e-006 -1.43492e-006 0.4882 -2.341 -0.6462 0.0145122 0.00365789 -0.00323706 0.3574 -1.7166 -0.4742 1.59028e-015 0 7.95139e-016 1.4199 -1.8761 1.4221 1.90599e-006 3.62113e-006 -1.43492e-006 1.1472 -3.4929 2.6336 1.59028e-015 -3.18055e-015 -3.18055e-015 0.8229 -2.3 1.6571 4.41391e-031 6.36111e-015 -3.97569e-015 -9.412 3.9771 -0.7758 -30.6918 18.8751 -37.6165 -0.7531 -40.938 0 -70.0515 38.4139 71.2025 7.10543e-015 -40.1986 -1.42109e-014 25.2117 8.18785 6.3379 -7.10543e-015 -4.4182 9.239 -1.58962e-006 -7.64305e-007 1.39999e-007 9.4119 3.9773 -0.7758 31.603 18.5242 37.5198 0.7532 -40.9383 -1.77636e-015 70.4825 39.4625 -71.4283 1.77636e-015 -40.1986 0 -24.1576 8.14827 -7.47757 -8.88178e-016 -4.4182 9.239 -2.88972e-006 5.30354e-006 8.13265e-006 
